<svg width="119" height="128" viewBox="0 0 119 128" fill="none" xmlns="http://www.w3.org/2000/svg">
<ellipse cx="63.6571" cy="3.28972" rx="3.40095" ry="3.28972" fill="#A080F6"/>
<ellipse cx="29.0291" cy="3.28972" rx="3.40095" ry="3.28972" fill="#A080F6"/>
<ellipse cx="98.2847" cy="3.28972" rx="3.40095" ry="3.28972" fill="#A080F6"/>
<ellipse cx="11.7154" cy="3.28972" rx="3.40095" ry="3.28972" fill="#A080F6"/>
<ellipse cx="80.9708" cy="3.28972" rx="3.40095" ry="3.28972" fill="#A080F6"/>
<ellipse cx="46.3431" cy="3.28972" rx="3.40095" ry="3.28972" fill="#A080F6"/>
<ellipse cx="115.598" cy="3.28972" rx="3.40095" ry="3.28972" fill="#A080F6"/>
<ellipse cx="63.6566" cy="72.673" rx="3.40095" ry="3.28972" fill="#A080F6"/>
<ellipse cx="29.0286" cy="72.673" rx="3.40095" ry="3.28972" fill="#A080F6"/>
<ellipse cx="98.2842" cy="72.673" rx="3.40095" ry="3.28972" fill="#A080F6"/>
<ellipse cx="11.7149" cy="72.673" rx="3.40095" ry="3.28972" fill="#A080F6"/>
<ellipse cx="80.9703" cy="72.673" rx="3.40095" ry="3.28972" fill="#A080F6"/>
<ellipse cx="46.3426" cy="72.673" rx="3.40095" ry="3.28972" fill="#A080F6"/>
<ellipse cx="115.598" cy="72.673" rx="3.40095" ry="3.28972" fill="#A080F6"/>
<ellipse cx="63.6566" cy="37.9811" rx="3.40095" ry="3.28972" fill="#A080F6"/>
<ellipse cx="29.0286" cy="37.9811" rx="3.40095" ry="3.28972" fill="#A080F6"/>
<ellipse cx="98.2842" cy="37.9811" rx="3.40095" ry="3.28972" fill="#A080F6"/>
<ellipse cx="11.7149" cy="37.9811" rx="3.40095" ry="3.28972" fill="#A080F6"/>
<ellipse cx="80.9703" cy="37.9811" rx="3.40095" ry="3.28972" fill="#A080F6"/>
<ellipse cx="46.3426" cy="37.9811" rx="3.40095" ry="3.28972" fill="#A080F6"/>
<ellipse cx="115.598" cy="37.9811" rx="3.40095" ry="3.28972" fill="#A080F6"/>
<ellipse cx="63.6566" cy="107.364" rx="3.40095" ry="3.28972" fill="#A080F6"/>
<ellipse cx="29.0286" cy="107.364" rx="3.40095" ry="3.28972" fill="#A080F6"/>
<ellipse cx="98.2842" cy="107.364" rx="3.40095" ry="3.28972" fill="#A080F6"/>
<ellipse cx="11.7149" cy="107.364" rx="3.40095" ry="3.28972" fill="#A080F6"/>
<ellipse cx="80.9703" cy="107.364" rx="3.40095" ry="3.28972" fill="#A080F6"/>
<ellipse cx="46.3426" cy="107.364" rx="3.40095" ry="3.28972" fill="#A080F6"/>
<ellipse cx="115.598" cy="107.364" rx="3.40095" ry="3.28972" fill="#A080F6"/>
<ellipse cx="63.6566" cy="20.6354" rx="3.40095" ry="3.28972" fill="#A080F6"/>
<ellipse cx="29.0286" cy="20.6354" rx="3.40095" ry="3.28972" fill="#A080F6"/>
<ellipse cx="98.2842" cy="20.6354" rx="3.40095" ry="3.28972" fill="#A080F6"/>
<ellipse cx="11.7149" cy="20.6354" rx="3.40095" ry="3.28972" fill="#A080F6"/>
<ellipse cx="80.9703" cy="20.6354" rx="3.40095" ry="3.28972" fill="#A080F6"/>
<ellipse cx="46.3426" cy="20.6354" rx="3.40095" ry="3.28972" fill="#A080F6"/>
<ellipse cx="115.598" cy="20.6354" rx="3.40095" ry="3.28972" fill="#A080F6"/>
<ellipse cx="63.6566" cy="90.0187" rx="3.40095" ry="3.28972" fill="#A080F6"/>
<ellipse cx="29.0286" cy="90.0187" rx="3.40095" ry="3.28972" fill="#A080F6"/>
<ellipse cx="98.2842" cy="90.0187" rx="3.40095" ry="3.28972" fill="#A080F6"/>
<ellipse cx="11.7149" cy="90.0187" rx="3.40095" ry="3.28972" fill="#A080F6"/>
<ellipse cx="80.9703" cy="90.0187" rx="3.40095" ry="3.28972" fill="#A080F6"/>
<ellipse cx="46.3426" cy="90.0187" rx="3.40095" ry="3.28972" fill="#A080F6"/>
<ellipse cx="115.598" cy="90.0187" rx="3.40095" ry="3.28972" fill="#A080F6"/>
<ellipse cx="63.6566" cy="55.3268" rx="3.40095" ry="3.28972" fill="#A080F6"/>
<ellipse cx="29.0286" cy="55.3268" rx="3.40095" ry="3.28972" fill="#A080F6"/>
<ellipse cx="98.2842" cy="55.3268" rx="3.40095" ry="3.28972" fill="#A080F6"/>
<ellipse cx="11.7149" cy="55.3268" rx="3.40095" ry="3.28972" fill="#A080F6"/>
<ellipse cx="80.9703" cy="55.3268" rx="3.40095" ry="3.28972" fill="#A080F6"/>
<ellipse cx="46.3426" cy="55.3268" rx="3.40095" ry="3.28972" fill="#A080F6"/>
<ellipse cx="115.598" cy="55.3268" rx="3.40095" ry="3.28972" fill="#A080F6"/>
<ellipse cx="63.6566" cy="124.71" rx="3.40095" ry="3.28972" fill="#A080F6"/>
<ellipse cx="29.0286" cy="124.71" rx="3.40095" ry="3.28972" fill="#A080F6"/>
<ellipse cx="98.2842" cy="124.71" rx="3.40095" ry="3.28972" fill="#A080F6"/>
<ellipse cx="11.7149" cy="124.71" rx="3.40095" ry="3.28972" fill="#A080F6"/>
<ellipse cx="80.9703" cy="124.71" rx="3.40095" ry="3.28972" fill="#A080F6"/>
<ellipse cx="46.3426" cy="124.71" rx="3.40095" ry="3.28972" fill="#A080F6"/>
<ellipse cx="115.598" cy="124.71" rx="3.40095" ry="3.28972" fill="#A080F6"/>
</svg>
