<svg width="128" height="128" viewBox="0 0 128 128" fill="none" xmlns="http://www.w3.org/2000/svg">
<ellipse cx="3.40144" cy="3.28972" rx="3.40095" ry="3.28972" fill="#A080F6"/>
<ellipse cx="72.6571" cy="3.28972" rx="3.40095" ry="3.28972" fill="#A080F6"/>
<ellipse cx="38.0291" cy="3.28972" rx="3.40095" ry="3.28972" fill="#A080F6"/>
<ellipse cx="107.285" cy="3.28972" rx="3.40095" ry="3.28972" fill="#A080F6"/>
<ellipse cx="20.7154" cy="3.28972" rx="3.40095" ry="3.28972" fill="#A080F6"/>
<ellipse cx="89.9708" cy="3.28972" rx="3.40095" ry="3.28972" fill="#A080F6"/>
<ellipse cx="55.3431" cy="3.28972" rx="3.40095" ry="3.28972" fill="#A080F6"/>
<ellipse cx="124.598" cy="3.28972" rx="3.40095" ry="3.28972" fill="#A080F6"/>
<ellipse cx="3.40095" cy="72.6738" rx="3.40095" ry="3.28972" fill="#A080F6"/>
<ellipse cx="72.6566" cy="72.6733" rx="3.40095" ry="3.28972" fill="#A080F6"/>
<ellipse cx="38.0286" cy="72.6733" rx="3.40095" ry="3.28972" fill="#A080F6"/>
<ellipse cx="107.284" cy="72.6733" rx="3.40095" ry="3.28972" fill="#A080F6"/>
<ellipse cx="20.7149" cy="72.6733" rx="3.40095" ry="3.28972" fill="#A080F6"/>
<ellipse cx="89.9703" cy="72.6733" rx="3.40095" ry="3.28972" fill="#A080F6"/>
<ellipse cx="55.3426" cy="72.6733" rx="3.40095" ry="3.28972" fill="#A080F6"/>
<ellipse cx="124.598" cy="72.6733" rx="3.40095" ry="3.28972" fill="#A080F6"/>
<ellipse cx="3.40095" cy="37.9814" rx="3.40095" ry="3.28972" fill="#A080F6"/>
<ellipse cx="72.6566" cy="37.9811" rx="3.40095" ry="3.28972" fill="#A080F6"/>
<ellipse cx="38.0286" cy="37.9811" rx="3.40095" ry="3.28972" fill="#A080F6"/>
<ellipse cx="107.284" cy="37.9811" rx="3.40095" ry="3.28972" fill="#A080F6"/>
<ellipse cx="20.7149" cy="37.9811" rx="3.40095" ry="3.28972" fill="#A080F6"/>
<ellipse cx="89.9703" cy="37.9811" rx="3.40095" ry="3.28972" fill="#A080F6"/>
<ellipse cx="55.3426" cy="37.9811" rx="3.40095" ry="3.28972" fill="#A080F6"/>
<ellipse cx="124.598" cy="37.9811" rx="3.40095" ry="3.28972" fill="#A080F6"/>
<ellipse cx="3.40095" cy="107.364" rx="3.40095" ry="3.28972" fill="#A080F6"/>
<ellipse cx="72.6566" cy="107.364" rx="3.40095" ry="3.28972" fill="#A080F6"/>
<ellipse cx="38.0286" cy="107.364" rx="3.40095" ry="3.28972" fill="#A080F6"/>
<ellipse cx="107.284" cy="107.364" rx="3.40095" ry="3.28972" fill="#A080F6"/>
<ellipse cx="20.7149" cy="107.364" rx="3.40095" ry="3.28972" fill="#A080F6"/>
<ellipse cx="89.9703" cy="107.364" rx="3.40095" ry="3.28972" fill="#A080F6"/>
<ellipse cx="55.3426" cy="107.364" rx="3.40095" ry="3.28972" fill="#A080F6"/>
<ellipse cx="124.598" cy="107.364" rx="3.40095" ry="3.28972" fill="#A080F6"/>
<ellipse cx="3.40095" cy="20.6357" rx="3.40095" ry="3.28972" fill="#A080F6"/>
<ellipse cx="72.6566" cy="20.6354" rx="3.40095" ry="3.28972" fill="#A080F6"/>
<ellipse cx="38.0286" cy="20.6354" rx="3.40095" ry="3.28972" fill="#A080F6"/>
<ellipse cx="107.284" cy="20.6354" rx="3.40095" ry="3.28972" fill="#A080F6"/>
<ellipse cx="20.7149" cy="20.6354" rx="3.40095" ry="3.28972" fill="#A080F6"/>
<ellipse cx="89.9703" cy="20.6354" rx="3.40095" ry="3.28972" fill="#A080F6"/>
<ellipse cx="55.3426" cy="20.6354" rx="3.40095" ry="3.28972" fill="#A080F6"/>
<ellipse cx="124.598" cy="20.6354" rx="3.40095" ry="3.28972" fill="#A080F6"/>
<ellipse cx="3.40095" cy="90.0195" rx="3.40095" ry="3.28972" fill="#A080F6"/>
<ellipse cx="72.6566" cy="90.019" rx="3.40095" ry="3.28972" fill="#A080F6"/>
<ellipse cx="38.0286" cy="90.019" rx="3.40095" ry="3.28972" fill="#A080F6"/>
<ellipse cx="107.284" cy="90.019" rx="3.40095" ry="3.28972" fill="#A080F6"/>
<ellipse cx="20.7149" cy="90.019" rx="3.40095" ry="3.28972" fill="#A080F6"/>
<ellipse cx="89.9703" cy="90.019" rx="3.40095" ry="3.28972" fill="#A080F6"/>
<ellipse cx="55.3426" cy="90.019" rx="3.40095" ry="3.28972" fill="#A080F6"/>
<ellipse cx="124.598" cy="90.019" rx="3.40095" ry="3.28972" fill="#A080F6"/>
<ellipse cx="3.40095" cy="55.3273" rx="3.40095" ry="3.28972" fill="#A080F6"/>
<ellipse cx="72.6566" cy="55.3266" rx="3.40095" ry="3.28972" fill="#A080F6"/>
<ellipse cx="38.0286" cy="55.3266" rx="3.40095" ry="3.28972" fill="#A080F6"/>
<ellipse cx="107.284" cy="55.3266" rx="3.40095" ry="3.28972" fill="#A080F6"/>
<ellipse cx="20.7149" cy="55.3266" rx="3.40095" ry="3.28972" fill="#A080F6"/>
<ellipse cx="89.9703" cy="55.3266" rx="3.40095" ry="3.28972" fill="#A080F6"/>
<ellipse cx="55.3426" cy="55.3266" rx="3.40095" ry="3.28972" fill="#A080F6"/>
<ellipse cx="124.598" cy="55.3266" rx="3.40095" ry="3.28972" fill="#A080F6"/>
<ellipse cx="3.40095" cy="124.71" rx="3.40095" ry="3.28972" fill="#A080F6"/>
<ellipse cx="72.6566" cy="124.71" rx="3.40095" ry="3.28972" fill="#A080F6"/>
<ellipse cx="38.0286" cy="124.71" rx="3.40095" ry="3.28972" fill="#A080F6"/>
<ellipse cx="107.284" cy="124.71" rx="3.40095" ry="3.28972" fill="#A080F6"/>
<ellipse cx="20.7149" cy="124.71" rx="3.40095" ry="3.28972" fill="#A080F6"/>
<ellipse cx="89.9703" cy="124.71" rx="3.40095" ry="3.28972" fill="#A080F6"/>
<ellipse cx="55.3426" cy="124.71" rx="3.40095" ry="3.28972" fill="#A080F6"/>
<ellipse cx="124.598" cy="124.71" rx="3.40095" ry="3.28972" fill="#A080F6"/>
</svg>
