<svg width="119" height="128" fill="none" xmlns="http://www.w3.org/2000/svg"><ellipse cx="63.657" cy="3.29" rx="3.401" ry="3.29" fill="#A080F6"/><ellipse cx="29.029" cy="3.29" rx="3.401" ry="3.29" fill="#A080F6"/><ellipse cx="98.285" cy="3.29" rx="3.401" ry="3.29" fill="#A080F6"/><ellipse cx="11.715" cy="3.29" rx="3.401" ry="3.29" fill="#A080F6"/><ellipse cx="80.971" cy="3.29" rx="3.401" ry="3.29" fill="#A080F6"/><ellipse cx="46.343" cy="3.29" rx="3.401" ry="3.29" fill="#A080F6"/><ellipse cx="115.598" cy="3.29" rx="3.401" ry="3.29" fill="#A080F6"/><ellipse cx="63.657" cy="72.673" rx="3.401" ry="3.29" fill="#A080F6"/><ellipse cx="29.029" cy="72.673" rx="3.401" ry="3.29" fill="#A080F6"/><ellipse cx="98.284" cy="72.673" rx="3.401" ry="3.29" fill="#A080F6"/><ellipse cx="11.715" cy="72.673" rx="3.401" ry="3.29" fill="#A080F6"/><ellipse cx="80.97" cy="72.673" rx="3.401" ry="3.29" fill="#A080F6"/><ellipse cx="46.343" cy="72.673" rx="3.401" ry="3.29" fill="#A080F6"/><ellipse cx="115.598" cy="72.673" rx="3.401" ry="3.29" fill="#A080F6"/><ellipse cx="63.657" cy="37.981" rx="3.401" ry="3.29" fill="#A080F6"/><ellipse cx="29.029" cy="37.981" rx="3.401" ry="3.29" fill="#A080F6"/><ellipse cx="98.284" cy="37.981" rx="3.401" ry="3.29" fill="#A080F6"/><ellipse cx="11.715" cy="37.981" rx="3.401" ry="3.29" fill="#A080F6"/><ellipse cx="80.97" cy="37.981" rx="3.401" ry="3.29" fill="#A080F6"/><ellipse cx="46.343" cy="37.981" rx="3.401" ry="3.29" fill="#A080F6"/><ellipse cx="115.598" cy="37.981" rx="3.401" ry="3.29" fill="#A080F6"/><ellipse cx="63.657" cy="107.364" rx="3.401" ry="3.29" fill="#A080F6"/><ellipse cx="29.029" cy="107.364" rx="3.401" ry="3.29" fill="#A080F6"/><ellipse cx="98.284" cy="107.364" rx="3.401" ry="3.29" fill="#A080F6"/><ellipse cx="11.715" cy="107.364" rx="3.401" ry="3.29" fill="#A080F6"/><ellipse cx="80.97" cy="107.364" rx="3.401" ry="3.29" fill="#A080F6"/><ellipse cx="46.343" cy="107.364" rx="3.401" ry="3.29" fill="#A080F6"/><ellipse cx="115.598" cy="107.364" rx="3.401" ry="3.29" fill="#A080F6"/><ellipse cx="63.657" cy="20.635" rx="3.401" ry="3.29" fill="#A080F6"/><ellipse cx="29.029" cy="20.635" rx="3.401" ry="3.29" fill="#A080F6"/><ellipse cx="98.284" cy="20.635" rx="3.401" ry="3.29" fill="#A080F6"/><ellipse cx="11.715" cy="20.635" rx="3.401" ry="3.29" fill="#A080F6"/><ellipse cx="80.97" cy="20.635" rx="3.401" ry="3.29" fill="#A080F6"/><ellipse cx="46.343" cy="20.635" rx="3.401" ry="3.29" fill="#A080F6"/><ellipse cx="115.598" cy="20.635" rx="3.401" ry="3.29" fill="#A080F6"/><ellipse cx="63.657" cy="90.019" rx="3.401" ry="3.29" fill="#A080F6"/><ellipse cx="29.029" cy="90.019" rx="3.401" ry="3.29" fill="#A080F6"/><ellipse cx="98.284" cy="90.019" rx="3.401" ry="3.29" fill="#A080F6"/><ellipse cx="11.715" cy="90.019" rx="3.401" ry="3.29" fill="#A080F6"/><ellipse cx="80.97" cy="90.019" rx="3.401" ry="3.29" fill="#A080F6"/><ellipse cx="46.343" cy="90.019" rx="3.401" ry="3.29" fill="#A080F6"/><ellipse cx="115.598" cy="90.019" rx="3.401" ry="3.29" fill="#A080F6"/><ellipse cx="63.657" cy="55.327" rx="3.401" ry="3.29" fill="#A080F6"/><ellipse cx="29.029" cy="55.327" rx="3.401" ry="3.29" fill="#A080F6"/><ellipse cx="98.284" cy="55.327" rx="3.401" ry="3.29" fill="#A080F6"/><ellipse cx="11.715" cy="55.327" rx="3.401" ry="3.29" fill="#A080F6"/><ellipse cx="80.97" cy="55.327" rx="3.401" ry="3.29" fill="#A080F6"/><ellipse cx="46.343" cy="55.327" rx="3.401" ry="3.29" fill="#A080F6"/><ellipse cx="115.598" cy="55.327" rx="3.401" ry="3.29" fill="#A080F6"/><ellipse cx="63.657" cy="124.71" rx="3.401" ry="3.29" fill="#A080F6"/><ellipse cx="29.029" cy="124.71" rx="3.401" ry="3.29" fill="#A080F6"/><ellipse cx="98.284" cy="124.71" rx="3.401" ry="3.29" fill="#A080F6"/><ellipse cx="11.715" cy="124.71" rx="3.401" ry="3.29" fill="#A080F6"/><ellipse cx="80.97" cy="124.71" rx="3.401" ry="3.29" fill="#A080F6"/><ellipse cx="46.343" cy="124.71" rx="3.401" ry="3.29" fill="#A080F6"/><ellipse cx="115.598" cy="124.71" rx="3.401" ry="3.29" fill="#A080F6"/></svg>